<!DOCTYPE svg PUBLIC "-//W3C//DTD SVG 20010904//EN" "http://www.w3.org/TR/2001/REC-SVG-20010904/DTD/svg10.dtd">
<svg version="1.0" xmlns="http://www.w3.org/2000/svg" width="612px" height="612px" viewBox="0 0 6120 6120" preserveAspectRatio="xMidYMid meet">
<g id="layer1" fill="#ff0000" stroke="none">
 <path d="M353 6105 c-147 -36 -303 -193 -338 -342 -18 -74 -18 -241 -1 -316 8 -31 26 -79 41 -105 18 -31 414 -434 1144 -1165 l1116 -1117 -1116 -1118 c-730 -730 -1126 -1133 -1144 -1164 -38 -67 -54 -147 -54 -263 0 -170 32 -257 135 -365 105 -110 205 -149 379 -149 116 0 196 16 263 54 31 18 434 414 1164 1144 l1118 1116 1118 -1116 c730 -730 1133 -1126 1164 -1144 67 -38 147 -54 263 -54 174 0 274 39 379 149 103 108 135 195 135 365 0 116 -16 196 -54 263 -18 31 -414 434 -1144 1164 l-1116 1118 1116 1117 c730 731 1126 1134 1144 1165 38 67 54 147 54 263 0 174 -39 274 -149 379 -108 103 -195 135 -365 135 -116 0 -196 -16 -263 -54 -31 -18 -434 -414 -1164 -1144 l-1118 -1116 -1117 1116 c-731 730 -1134 1126 -1165 1144 -26 15 -74 33 -105 41 -71 16 -250 16 -320 -1z"/>
 </g>

</svg>